<?xml version="1.0" standalone="no"?>
<!DOCTYPE svg PUBLIC "-//W3C//DTD SVG 20010904//EN"
 "http://www.w3.org/TR/2001/REC-SVG-20010904/DTD/svg10.dtd">
<svg version="1.0" xmlns="http://www.w3.org/2000/svg"
 width="300.000000pt" height="275.000000pt" viewBox="0 0 300.000000 275.000000"
 preserveAspectRatio="xMidYMid meet">
<metadata>
Created by potrace 1.10, written by Peter Selinger 2001-2011
</metadata>
<g transform="translate(0.000000,275.000000) scale(0.100000,-0.100000)"
fill="#000000" stroke="none">
<path d="M2656 2494 c-9 -8 -16 -21 -16 -27 0 -7 5 -4 11 6 14 23 35 22 53 -5
19 -27 15 -34 -25 -42 -27 -5 -36 -2 -57 24 -30 36 -55 38 -87 5 -26 -25 -33
-76 -16 -103 5 -8 8 4 7 31 -1 52 16 77 53 76 25 0 25 -1 4 -9 -23 -9 -39 -49
-30 -72 3 -7 6 -4 6 8 1 27 36 58 56 51 21 -9 19 -22 -7 -39 -71 -47 -128
-146 -128 -224 0 -19 -7 -58 -16 -85 -14 -43 -15 -56 -4 -92 8 -23 18 -47 22
-54 10 -12 4 -99 -11 -173 -5 -25 -7 -49 -4 -54 4 -5 2 -6 -4 -3 -6 4 -15 -6
-22 -21 -10 -23 -9 -24 2 -10 11 14 13 6 13 -52 -1 -59 -3 -66 -13 -47 -7 12
-12 35 -13 52 0 20 -3 26 -10 19 -8 -8 -7 -24 3 -52 l15 -42 -33 0 c-63 0
-142 -81 -198 -202 -12 -27 -26 -48 -31 -48 -21 0 -102 45 -116 64 -30 41 -47
98 -40 136 8 46 116 189 173 232 23 16 78 47 122 67 81 38 155 93 155 115 0 7
-19 -6 -43 -28 -43 -41 -203 -121 -212 -107 -2 5 7 19 20 31 14 13 25 32 25
42 0 29 70 89 100 86 33 -4 40 27 8 35 -27 7 -69 -17 -123 -72 -21 -23 -48
-41 -59 -41 -18 0 -18 1 -2 19 19 21 14 41 -9 41 -7 0 -16 11 -19 25 -4 14
-16 29 -28 34 -45 17 -130 -20 -153 -66 -6 -12 -16 -27 -22 -34 -6 -8 -19 -41
-28 -73 -16 -53 -53 -106 -76 -106 -4 0 -34 37 -66 83 -36 50 -72 88 -92 99
-33 16 -33 17 -10 22 13 3 53 7 89 10 45 4 76 14 103 32 36 23 60 60 50 76 -2
4 9 14 25 22 43 22 65 61 58 101 -4 18 -13 38 -20 44 -7 6 -11 22 -9 34 3 17
-5 34 -30 60 -31 34 -39 37 -88 37 -35 0 -68 -7 -92 -20 -20 -11 -37 -16 -37
-11 0 15 -29 21 -55 11 -13 -5 -42 -25 -63 -44 -37 -34 -66 -40 -40 -9 9 11 8
22 -7 49 -16 29 -17 40 -8 65 10 26 10 30 -5 27 -10 -2 -21 -19 -28 -43 -16
-61 -24 -75 -45 -75 -25 0 -24 17 1 25 20 6 20 6 -1 36 -25 36 -42 37 -58 3
-12 -27 -28 -28 -44 -2 -14 21 -2 48 20 48 27 0 41 12 49 44 l7 29 -23 -23
-23 -23 -26 32 c-14 17 -34 31 -43 31 -24 0 -48 -39 -48 -78 0 -40 -15 -72
-35 -72 -17 0 -20 26 -4 35 13 8 -19 34 -42 35 -34 0 -44 -27 -30 -82 11 -42
11 -52 0 -59 -24 -15 -30 -10 -23 19 l6 27 -26 -30 c-14 -16 -28 -38 -31 -47
-5 -13 -15 -17 -38 -15 l-32 2 1 -61 c1 -59 0 -60 -26 -56 -23 3 -25 8 -22 36
5 47 -17 62 -52 35 l-27 -21 -6 21 c-9 37 -32 28 -76 -31 -15 -21 -32 -38 -38
-38 -27 0 -104 -47 -120 -74 -29 -47 -24 -87 16 -145 l36 -52 -26 -30 c-14
-17 -25 -39 -25 -49 0 -10 -9 -35 -21 -54 -13 -23 -20 -50 -19 -83 1 -26 -2
-60 -5 -75 -6 -22 -1 -33 23 -58 34 -33 59 -37 102 -15 18 9 31 11 35 5 9 -15
68 -12 91 5 12 8 39 37 60 65 21 28 49 58 62 66 21 14 26 13 59 -6 19 -11 38
-19 40 -16 3 2 -17 16 -44 31 -253 143 -405 286 -388 365 9 39 56 87 96 95 19
4 51 28 81 59 l50 51 -6 -45 c-5 -35 -4 -40 4 -25 6 11 25 28 42 38 35 20 53
8 42 -28 -17 -60 -17 -64 10 -75 14 -5 26 -14 26 -19 0 -23 -14 -41 -31 -41
-10 0 -19 -6 -19 -14 0 -8 -4 -17 -8 -20 -13 -8 -53 5 -46 15 7 12 -17 89 -29
89 -5 0 -6 -8 -2 -17 4 -10 9 -35 10 -56 3 -31 1 -36 -11 -26 -9 8 -14 8 -14
1 0 -6 4 -14 10 -17 6 -3 10 -16 10 -27 0 -24 64 -89 113 -115 18 -9 59 -24
92 -33 73 -19 92 -45 80 -106 -5 -23 -10 -32 -12 -21 -3 9 -9 17 -15 17 -5 0
-7 -12 -3 -30 3 -16 2 -37 -4 -47 -9 -15 -11 -12 -11 17 -2 53 -13 73 -44 76
-44 5 -96 44 -187 143 -84 92 -152 139 -182 128 -26 -10 -20 -27 9 -27 35 0
73 -29 179 -136 85 -86 164 -142 185 -129 15 9 30 -31 27 -73 -4 -58 -21 -74
-71 -67 -48 8 -61 -3 -92 -72 -15 -35 -24 -43 -46 -43 -15 0 -29 -4 -32 -9 -3
-4 -19 -11 -35 -14 -17 -4 -35 -16 -42 -29 -7 -13 -20 -29 -31 -36 -10 -7 -18
-19 -18 -25 0 -7 -10 -17 -23 -22 -12 -6 -23 -20 -25 -32 -3 -22 -4 -22 -36
10 -18 17 -47 44 -65 58 -26 22 -31 34 -31 69 0 36 -6 48 -39 81 -60 60 -105
51 -116 -22 l-5 -34 13 35 c29 74 122 33 134 -60 l6 -42 -44 22 c-45 23 -121
31 -171 17 -26 -7 -28 -5 -28 22 0 29 1 29 32 20 42 -12 43 -12 28 6 -7 8 -22
15 -33 15 -16 0 -18 3 -9 12 9 9 18 9 39 -1 26 -12 27 -11 11 5 -25 25 -67 11
-74 -26 -6 -25 -9 -27 -25 -17 -24 15 -53 -1 -57 -31 -2 -11 -12 -22 -23 -25
-12 -3 -19 -14 -19 -30 0 -14 -7 -28 -16 -31 -12 -5 -15 -14 -11 -35 4 -17 -1
-50 -10 -76 -26 -77 -14 -186 29 -276 43 -90 81 -140 272 -353 168 -186 198
-208 294 -207 71 0 107 13 149 53 40 39 57 88 49 140 -6 39 -6 40 21 34 51
-12 132 11 173 48 28 25 54 37 96 46 33 6 97 20 144 30 47 10 119 22 160 26
70 6 187 42 263 80 48 24 227 147 222 152 -3 3 -53 -27 -113 -67 -147 -97
-255 -140 -383 -152 -54 -5 -110 -14 -124 -19 -35 -13 -34 -13 -30 11 3 13 0
19 -8 16 -7 -3 -11 -9 -10 -15 1 -5 -5 -9 -15 -8 -9 0 -17 -4 -17 -11 0 -6 -4
-15 -9 -20 -5 -4 -6 -3 -3 4 10 16 -50 9 -88 -11 -50 -26 -53 -18 -5 13 25 16
59 44 75 62 17 18 22 27 13 20 -15 -11 -18 -11 -18 0 0 7 -10 3 -25 -11 -14
-13 -23 -26 -20 -28 6 -7 -15 -32 -26 -32 -17 0 -9 39 10 49 36 20 55 100 54
239 -1 90 1 101 13 85 21 -26 -10 49 -34 85 -10 15 -24 42 -32 60 -7 18 -24
42 -38 52 -13 11 -20 20 -14 20 22 0 62 -48 108 -130 67 -120 95 -163 101
-156 4 3 -1 14 -9 23 -32 37 -30 47 3 20 74 -60 112 -87 123 -87 6 0 2 7 -9
15 -89 65 -169 135 -181 158 -18 33 -28 34 110 -13 82 -29 98 -42 94 -82 -3
-20 1 -23 32 -23 31 0 35 3 45 38 7 24 21 44 40 56 17 10 36 25 44 35 12 14
12 16 -3 10 -11 -4 -15 -2 -11 8 6 14 74 52 81 45 2 -2 -13 -23 -33 -47 -30
-35 -32 -40 -12 -27 14 9 45 51 68 92 55 96 77 115 45 40 -8 -20 -13 -40 -10
-43 3 -2 8 4 12 14 3 10 10 30 14 44 5 14 14 57 20 97 6 39 18 80 26 90 13 16
13 11 7 -47 -11 -91 -9 -212 3 -233 7 -13 9 7 6 71 -5 113 0 141 17 87 7 -22
14 -62 17 -90 3 -27 12 -57 20 -66 8 -8 14 -23 14 -32 0 -20 -66 -73 -150
-120 -92 -51 -102 -59 -65 -51 64 15 199 104 221 145 13 26 13 33 1 52 -7 12
-19 36 -25 54 l-11 32 48 -30 c27 -16 55 -29 62 -29 8 0 20 -9 26 -19 7 -11
29 -22 52 -26 23 -4 43 -11 47 -16 3 -5 17 -9 32 -9 39 0 15 -18 -54 -40 -38
-11 -50 -18 -34 -19 14 0 49 10 78 24 41 19 58 22 73 15 14 -8 27 -6 49 5 73
38 121 75 158 121 32 41 39 57 37 89 -1 22 -3 40 -4 40 -3 0 -10 40 -15 93 -2
23 -9 49 -16 57 -8 10 -9 15 -2 15 6 0 20 -13 31 -29 45 -63 168 -93 241 -57
67 32 102 103 155 314 54 218 68 301 69 392 0 79 -2 91 -32 143 -18 31 -32 64
-32 73 0 9 -9 18 -19 21 -11 3 -21 15 -23 26 -2 12 -12 23 -22 25 -11 2 -27
14 -37 26 -15 18 -21 19 -39 8 -17 -11 -24 -9 -42 8 -26 24 -32 25 -52 4z
m-1284 -55 c15 -19 29 -29 40 -25 10 2 15 0 12 -6 -3 -5 -17 -7 -29 -4 -18 5
-25 1 -30 -14 -3 -11 -11 -20 -17 -20 -6 0 -3 12 7 26 11 18 14 29 7 36 -16
16 -32 0 -32 -30 0 -38 -35 -90 -65 -98 -30 -7 -54 10 -56 40 -2 20 -2 20 -6
0 -2 -11 3 -33 12 -50 8 -16 15 -24 15 -18 0 7 16 15 35 18 22 5 43 18 57 36
26 36 30 37 43 8 6 -13 20 -24 33 -26 20 -3 20 -5 7 -18 -17 -17 -21 -49 -5
-39 17 10 49 85 37 85 -8 0 -8 3 0 11 6 6 16 8 22 5 14 -9 14 -39 0 -53 -15
-15 -3 -33 21 -33 23 0 50 36 51 70 1 25 1 25 9 -3 5 -16 14 -35 21 -43 15
-18 -5 -46 -27 -37 -23 8 -64 -24 -64 -52 0 -22 23 -55 39 -55 13 0 31 24 31
42 0 11 -7 18 -20 18 -12 0 -20 -7 -20 -16 0 -14 2 -15 17 -3 14 12 16 12 11
-1 -7 -24 -36 -24 -43 0 -14 43 39 66 81 36 17 -13 18 -18 7 -46 -10 -26 -9
-32 3 -37 8 -3 21 0 29 7 12 10 15 9 15 -8 0 -12 5 -24 10 -27 16 -10 12 -41
-7 -56 -9 -8 -14 -9 -10 -3 4 7 1 24 -7 39 -8 15 -17 22 -21 16 -3 -6 -3 -17
2 -23 14 -22 12 -98 -3 -98 -7 0 -14 12 -16 28 -2 16 -12 31 -25 37 -13 5 -23
13 -23 17 0 4 -13 23 -30 41 -16 19 -30 41 -30 49 0 8 -15 22 -32 32 -18 9
-44 23 -58 31 -51 30 -83 20 -140 -42 -29 -31 -57 -67 -63 -80 -9 -20 -15 -22
-56 -16 -55 7 -71 24 -71 74 0 41 13 57 34 40 14 -12 37 8 50 43 3 10 9 17 11
14 3 -2 -1 -18 -7 -35 -20 -53 10 -84 46 -47 22 22 20 44 -4 44 -11 0 -20 -7
-20 -15 0 -8 5 -15 12 -15 9 0 9 -3 0 -12 -9 -9 -15 -9 -23 -1 -18 18 -1 50
37 72 21 12 32 26 28 32 -17 27 -21 79 -9 96 15 21 30 11 30 -19 0 -11 8 -26
17 -31 26 -17 58 17 58 62 0 36 22 81 40 81 5 0 20 -14 32 -31z m1402 25 c9
-3 16 -15 16 -25 0 -16 -5 -18 -27 -13 -35 9 -37 10 -30 29 7 16 16 18 41 9z
m46 -78 c96 -48 132 -150 112 -312 -13 -105 -40 -224 -53 -238 -5 -6 -9 -21
-9 -35 0 -47 -10 -52 -65 -35 -42 12 -212 44 -238 44 -5 0 -5 -4 -2 -10 3 -5
21 -10 40 -10 36 0 159 -24 213 -41 21 -7 32 -17 32 -30 0 -24 4 -24 -110 5
-114 28 -199 41 -185 28 6 -5 44 -14 85 -20 41 -6 106 -21 143 -32 57 -18 66
-24 56 -36 -6 -8 -8 -14 -5 -14 4 0 4 -6 -1 -12 -4 -7 -9 -22 -10 -33 -5 -31
-55 -106 -86 -129 -63 -47 -202 -15 -246 57 -27 44 -27 97 0 217 20 89 20 104
9 237 -7 78 -9 166 -6 195 8 66 53 147 101 184 76 58 139 63 225 20z m-877
-106 c18 -21 26 -38 22 -48 -4 -10 -9 -23 -12 -30 -3 -8 0 -10 10 -6 12 4 17
-3 23 -31 8 -47 -10 -82 -54 -103 -21 -11 -31 -21 -27 -30 7 -19 -21 -62 -39
-62 -8 0 -16 -5 -18 -11 -2 -6 -40 -15 -84 -19 -90 -9 -140 -27 -169 -60 -43
-48 -13 -193 49 -233 13 -9 43 -19 66 -23 22 -4 43 -11 47 -17 4 -6 -8 -7 -33
-3 -112 20 -194 67 -194 111 0 12 -7 28 -15 35 -35 29 -10 88 78 183 62 66 64
67 114 67 36 0 58 6 77 21 28 22 34 39 12 39 -7 0 4 17 25 39 48 48 51 80 10
104 -43 26 -64 21 -110 -23 -23 -23 -46 -38 -51 -35 -5 3 -11 1 -15 -5 -3 -5
-10 -10 -16 -10 -14 0 -11 44 6 66 8 10 15 23 15 28 0 15 -49 -35 -56 -56 -3
-10 -12 -18 -20 -18 -13 0 -13 3 0 22 9 12 13 31 10 43 -4 16 3 28 31 49 38
29 102 41 98 19 -4 -17 7 -16 26 1 27 23 74 36 121 32 35 -3 51 -11 73 -36z
m-598 -55 c-5 -2 -22 -6 -37 -9 -16 -4 -28 -12 -28 -18 0 -9 3 -9 12 0 17 17
68 14 98 -4 14 -9 17 -13 7 -10 -73 23 -101 14 -112 -35 -4 -18 -16 -34 -29
-39 -21 -8 -52 -37 -50 -49 2 -20 -49 -41 -98 -41 -38 0 -49 3 -38 10 12 8 9
10 -12 10 -31 0 -95 35 -80 44 5 3 47 0 94 -7 l85 -13 32 48 c48 70 106 118
139 117 15 0 23 -2 17 -4z m476 -36 c16 -11 29 -25 29 -30 0 -20 -73 -89 -94
-89 -29 0 -39 10 -26 25 8 9 6 14 -5 19 -23 8 -18 44 8 57 12 7 26 18 30 25
11 19 24 17 58 -7z m-409 -13 c33 -1 42 -10 25 -25 -10 -8 -22 -8 -45 0 -18 6
-37 9 -44 6 -7 -2 -21 0 -32 5 -28 15 1 30 39 21 17 -4 42 -7 57 -7z m76 -76
c32 -48 30 -113 -7 -171 -59 -94 -190 -116 -268 -46 -13 11 -23 17 -23 13 0
-5 -7 -3 -15 4 -15 13 -21 3 -15 -25 1 -5 -2 -7 -6 -2 -4 4 -8 16 -9 26 -2 19
10 22 33 8 6 -5 12 -4 12 2 0 5 -4 13 -10 16 -5 3 -10 23 -10 44 0 29 6 43 23
54 12 8 38 30 57 48 19 19 37 34 40 34 19 3 50 18 50 24 0 4 28 7 63 6 59 -1
63 -3 85 -35z m216 14 c11 -29 6 -53 -14 -64 -11 -6 -20 -17 -20 -25 0 -8 -5
-15 -10 -15 -12 0 -27 -14 -107 -103 -28 -31 -55 -66 -58 -78 -6 -17 -9 -19
-16 -8 -13 21 -11 59 4 59 20 0 52 39 52 64 0 15 10 24 35 33 28 9 35 16 33
35 -1 16 6 27 20 34 15 6 23 19 24 39 0 17 2 33 2 38 2 14 49 7 55 -9z m75
-80 c-7 -8 -30 -14 -56 -14 -39 0 -44 2 -33 14 11 15 63 25 88 18 9 -3 10 -8
1 -18z m-225 0 c9 -23 -1 -51 -21 -58 -12 -5 -13 -3 -6 6 6 7 10 25 9 41 -2
30 8 36 18 11z m-498 -47 c-1 -11 -10 -25 -20 -32 -9 -7 -18 -24 -19 -36 -2
-25 -43 -68 -64 -69 -7 0 -24 16 -39 35 -22 29 -24 38 -14 50 10 12 16 13 27
3 13 -10 19 -8 33 10 10 12 23 22 29 22 6 0 16 11 22 24 14 30 50 25 45 -7z
m27 -11 c-6 -38 9 -55 32 -36 17 14 20 40 5 40 -5 0 -7 -7 -4 -15 4 -9 0 -15
-10 -15 -9 0 -16 6 -16 14 0 29 13 46 35 46 20 0 24 -6 27 -37 2 -27 -2 -42
-15 -53 -23 -19 -15 -39 29 -67 19 -13 32 -18 29 -13 -3 6 -1 10 6 10 7 0 4 7
-7 15 -10 9 10 1 46 -17 76 -39 81 -44 78 -83 -2 -21 -8 -29 -19 -27 -24 3
-19 -27 14 -86 29 -52 29 -55 23 -155 -14 -207 -14 -211 -52 -236 l-34 -23
-19 23 -20 24 39 17 c21 9 44 27 51 39 11 22 10 22 -20 -4 -37 -30 -51 -34
-51 -12 0 8 6 15 14 15 8 0 24 12 36 27 18 23 19 28 6 41 -13 13 -18 13 -41
-2 -18 -12 -25 -24 -22 -37 4 -15 0 -19 -23 -19 -18 0 -35 -8 -44 -22 -9 -12
-16 -17 -16 -11 0 7 -16 23 -36 37 -21 14 -31 27 -25 31 6 3 14 4 19 2 11 -8
75 26 80 43 4 13 3 13 -14 0 -26 -20 -64 -41 -64 -35 0 3 23 30 50 60 31 35
50 64 50 80 0 29 31 50 48 33 8 -8 7 -15 -6 -24 -12 -9 -13 -13 -4 -14 16 0
72 54 72 69 0 5 -7 17 -16 25 -8 9 -14 26 -12 38 2 13 -2 23 -9 23 -6 0 -15 4
-20 9 -5 5 -2 6 6 1 12 -7 13 -1 8 31 -6 39 -44 84 -71 84 -7 0 -26 7 -42 15
-26 12 -36 12 -91 -2 -52 -14 -64 -15 -78 -3 -14 12 -13 16 11 42 16 16 38 28
53 28 35 0 58 15 37 23 -9 4 -16 2 -16 -3 0 -6 -9 -10 -20 -10 -12 0 -20 7
-20 18 0 9 9 23 20 30 11 7 20 23 20 37 0 14 4 25 9 25 6 0 7 -15 4 -34z
m1058 -23 c7 -20 7 -34 -3 -51 -17 -32 -54 -56 -74 -48 -21 8 -14 40 10 44 11
3 16 0 12 -7 -4 -6 -2 -11 3 -11 6 0 11 9 11 20 0 22 -12 25 -39 10 -43 -22
-31 -70 16 -70 17 0 38 14 64 42 27 29 39 38 39 26 0 -9 -4 -20 -10 -23 -19
-12 -10 -25 17 -25 18 0 44 17 84 55 32 30 63 55 71 55 7 0 4 -6 -7 -12 -38
-20 -85 -72 -95 -103 -12 -37 -79 -72 -99 -52 -7 7 -16 6 -28 -5 -10 -8 -24
-13 -31 -11 -7 3 -24 -2 -37 -11 -22 -15 -25 -15 -25 -1 0 16 39 36 53 28 4
-2 7 1 7 6 0 6 -9 11 -20 11 -22 0 -64 -36 -56 -48 3 -5 -19 -31 -48 -59 l-52
-51 -25 20 c-18 15 -21 21 -10 25 31 12 58 55 70 107 7 30 18 59 26 66 7 6 16
22 19 35 8 30 68 64 114 65 26 0 34 -5 43 -27z m-628 -45 c-26 -28 -35 -21
-17 13 12 24 18 29 25 18 5 -8 2 -20 -8 -31z m201 -47 c10 -9 35 -41 54 -71
20 -30 57 -76 83 -101 l47 -46 -10 -52 c-5 -29 -7 -56 -4 -59 9 -8 -14 -32
-31 -32 -8 0 -11 5 -8 10 4 6 -11 10 -37 9 -35 -1 -38 -2 -18 -8 20 -6 13 -9
-34 -14 -72 -9 -89 -18 -116 -62 -12 -19 -28 -35 -36 -35 -20 0 -5 28 37 69
l31 31 -32 0 c-31 0 -42 -9 -106 -83 -27 -31 -30 -4 -4 38 26 42 57 65 87 65
12 0 24 4 28 9 3 6 -10 8 -32 4 -27 -3 -49 -16 -75 -43 -20 -21 -39 -35 -42
-32 -3 3 -6 -2 -6 -11 0 -9 -4 -17 -9 -17 -25 0 -17 21 26 69 37 42 52 51 79
51 36 0 53 14 28 24 -30 12 -47 6 -86 -29 -21 -20 -44 -33 -49 -29 -6 3 8 23
33 45 37 33 50 38 91 39 34 0 46 -3 41 -11 -5 -9 1 -10 20 -5 23 6 114 -4 186
-21 24 -5 25 -5 5 11 -20 16 -20 16 -1 31 18 14 18 15 2 15 -9 0 -14 4 -11 10
3 6 -1 7 -10 4 -8 -4 -20 -15 -26 -26 -10 -18 -13 -16 -51 22 -39 39 -41 44
-39 93 2 56 -7 58 -19 5 l-8 -33 -1 38 c-1 44 -21 51 -21 7 0 -20 12 -43 36
-70 39 -43 38 -45 -17 -30 -42 12 -62 32 -84 84 -15 37 -15 38 1 32 16 -6 16
-5 -1 14 -11 12 -13 20 -6 20 8 0 9 5 1 19 -10 19 -5 45 12 68 12 15 77 5 102
-16z m-238 -69 c15 -39 15 -45 0 -61 -23 -26 -20 -45 4 -21 24 24 42 26 34 5
-4 -8 -1 -21 5 -29 8 -10 6 -17 -8 -30 -16 -15 -21 -15 -32 -3 -11 11 -16 11
-31 -2 -10 -9 -26 -16 -35 -16 -9 0 -18 -6 -21 -14 -3 -8 0 -11 7 -7 6 4 11 3
11 -2 0 -5 7 -9 15 -9 8 0 12 4 9 8 -2 4 0 10 6 14 6 3 10 -4 10 -17 0 -13 5
-30 11 -38 7 -11 8 -4 3 24 l-7 39 36 -6 c26 -4 37 -2 41 9 4 10 2 13 -7 8 -9
-5 -9 -4 0 6 10 11 15 11 28 0 8 -7 15 -18 15 -24 0 -6 -5 -4 -10 4 -8 13 -10
13 -10 -2 0 -9 -19 -33 -42 -53 -44 -37 -45 -40 -49 -136 0 -12 -7 -15 -20
-12 -24 7 -24 19 -1 32 9 6 13 11 9 11 -5 0 -20 -9 -33 -19 -17 -13 -20 -21
-12 -24 9 -4 7 -6 -3 -6 -16 -1 -55 -49 -46 -57 2 -2 12 5 22 16 10 11 25 20
33 20 13 0 13 -2 -1 -17 -8 -10 -18 -31 -21 -48 -5 -25 -3 -24 13 11 12 27 30
46 54 57 46 22 47 22 47 -13 0 -27 -2 -29 -18 -21 -22 12 -55 -7 -73 -42 -10
-18 -6 -17 19 7 22 20 37 27 53 23 23 -6 82 30 73 45 -5 8 48 59 55 52 2 -2
-4 -13 -14 -24 -19 -21 -14 -50 9 -50 8 0 29 20 46 44 16 25 38 47 48 50 36
10 152 18 152 10 0 -5 -5 -25 -10 -45 l-10 -36 -57 8 c-31 4 -60 6 -65 3 -4
-3 -18 0 -30 6 -22 11 -22 10 -4 -4 11 -9 18 -17 15 -19 -20 -16 -79 -47 -86
-45 -12 3 -68 -11 -167 -43 -107 -35 -109 -35 -101 -8 4 12 7 37 7 58 0 20 5
42 11 50 10 12 9 13 -3 6 -12 -6 -13 -5 -3 5 7 7 10 27 8 44 -4 28 -4 29 4 6
5 -14 9 -20 10 -13 1 6 20 26 44 43 27 20 35 30 22 28 -11 -2 -28 -11 -39 -20
-21 -19 -46 -13 -46 11 0 13 2 13 9 2 11 -18 23 2 14 25 -5 13 -3 15 7 9 9 -5
11 -4 6 4 -6 9 -11 9 -22 0 -11 -9 -14 -8 -14 5 0 9 5 16 11 16 5 0 7 5 4 10
-4 6 -2 17 5 25 9 10 6 15 -12 21 -22 7 -47 31 -48 47 0 4 19 5 43 1 31 -4 38
-3 27 5 -8 6 -30 11 -47 11 -18 0 -33 5 -33 10 0 6 5 10 10 10 6 0 12 0 15 0
2 0 15 9 27 20 13 11 41 36 63 56 l40 35 -57 -31 -58 -32 -9 24 c-8 21 -5 24
34 34 24 6 53 19 66 28 23 16 24 15 27 -1 2 -10 10 -37 18 -61z m-716 3 c12
-13 40 -36 62 -51 31 -22 36 -29 24 -36 -18 -10 -48 1 -39 15 3 6 1 7 -5 3 -6
-4 -23 1 -37 10 -21 14 -31 15 -51 5 -31 -14 -34 -14 -34 0 0 15 40 79 49 79
4 0 18 -11 31 -25z m414 4 c16 -13 26 -30 26 -47 0 -19 3 -23 11 -15 8 8 8 17
0 31 -18 33 -13 37 15 11 22 -21 25 -30 20 -66 -4 -34 -2 -43 9 -43 31 0 6
-59 -36 -84 -19 -11 -32 -30 -39 -55 -15 -55 -114 -140 -137 -117 -3 3 -14 1
-23 -4 -27 -14 -80 -2 -73 17 3 8 14 13 24 10 10 -3 26 1 36 8 14 11 16 16 6
26 -11 11 -13 10 -13 -4 0 -9 -7 -17 -15 -17 -8 0 -15 6 -15 14 0 24 30 40 75
37 39 -2 46 2 68 31 47 63 68 116 65 165 -4 55 -32 81 -96 90 -69 9 -48 28 34
32 18 0 42 -8 58 -20z m1036 -16 c0 -3 -22 -25 -50 -49 -27 -25 -74 -80 -104
-124 -61 -86 -70 -125 -43 -177 9 -18 17 -37 17 -43 0 -17 62 -70 82 -70 9 0
21 -6 25 -13 13 -21 97 -36 111 -20 7 7 24 13 37 13 25 0 46 26 52 64 2 11 8
24 13 31 5 6 7 24 5 40 -2 17 -4 41 -5 55 -2 25 -2 25 -10 -3 -5 -16 -5 -39 0
-52 6 -17 5 -27 -6 -35 -7 -7 -14 -21 -14 -30 0 -29 -11 -50 -27 -50 -8 0 -28
-7 -45 -16 -48 -25 -54 -5 -20 62 42 81 75 124 124 156 50 34 81 36 96 6 10
-21 26 -132 27 -183 0 -11 3 -25 7 -31 4 -6 -1 -19 -12 -29 -18 -16 -20 -16
-20 -2 0 10 -4 17 -10 17 -5 0 -10 6 -10 14 0 8 -5 18 -10 21 -6 4 -9 1 -8 -6
2 -7 -5 -15 -14 -17 -13 -2 -16 1 -12 12 3 9 4 16 1 16 -3 0 -7 -6 -10 -14 -3
-8 4 -21 18 -30 23 -15 24 -15 19 1 -4 13 0 11 16 -6 25 -28 23 -56 -4 -56
-11 0 -21 -7 -23 -15 -4 -13 -3 -13 6 0 9 13 11 13 11 -2 0 -16 -11 -21 -37
-17 -3 0 -10 -6 -15 -15 -5 -9 -13 -14 -19 -11 -5 4 -9 1 -9 -4 0 -6 -6 -11
-14 -11 -8 0 -17 -6 -20 -12 -5 -10 -7 -10 -12 -1 -4 10 -9 9 -21 -3 -14 -13
-18 -13 -39 0 -12 9 -30 13 -38 10 -9 -4 -18 0 -22 10 -4 11 -13 14 -30 10
-15 -4 -24 -2 -24 6 0 7 -8 9 -19 5 -13 -4 -23 2 -35 20 -9 14 -26 25 -37 25
-22 0 -67 26 -86 50 -6 8 -22 42 -34 75 -21 58 -22 99 -5 235 4 33 44 110 56
110 6 0 20 11 32 25 12 14 30 25 40 25 10 0 18 5 18 10 0 6 13 10 29 10 17 0
32 4 35 8 6 9 96 14 96 5z m-1442 -76 c2 -10 -4 -29 -12 -42 -19 -29 -49 -34
-44 -7 2 9 10 16 16 15 7 -2 12 2 12 7 0 18 -29 10 -41 -11 -9 -17 -8 -25 5
-37 21 -21 44 -8 72 41 16 29 23 34 32 25 9 -9 20 -10 42 -1 39 15 42 -8 4
-26 -15 -6 -24 -15 -20 -18 3 -4 19 3 35 15 l29 21 56 -33 55 -33 -27 -20
c-15 -11 -43 -41 -62 -67 -25 -33 -46 -49 -74 -57 -24 -6 -41 -7 -45 -1 -8 12
-101 13 -101 1 0 -14 -22 -10 -42 8 -22 19 -24 66 -3 86 13 13 13 16 0 21 -30
11 -6 99 33 121 35 19 76 15 80 -8z m522 -106 c0 -24 -18 -37 -32 -23 -8 8 -7
16 2 27 17 21 30 19 30 -4z m-1009 -211 c27 -15 24 -32 -10 -52 -26 -14 -30
-14 -35 -1 -10 26 -7 33 17 34 17 1 18 2 4 6 -9 2 -15 9 -12 14 8 11 12 11 36
-1z m738 -5 c45 -9 176 -133 192 -182 6 -20 21 -51 31 -70 11 -18 18 -39 15
-47 -3 -8 -1 -46 4 -86 9 -59 8 -79 -5 -111 -9 -22 -16 -52 -16 -67 0 -17 -10
-38 -25 -52 -14 -13 -25 -33 -25 -46 0 -24 -24 -49 -38 -40 -5 3 -7 -5 -5 -17
3 -14 -3 -26 -16 -35 -12 -7 -21 -9 -20 -5 5 29 -5 31 -10 3 -4 -22 -12 -34
-20 -32 -7 1 -18 -1 -25 -6 -6 -5 -37 -10 -70 -11 -50 -1 -57 1 -52 15 3 8 6
46 6 82 0 37 4 72 8 78 12 18 79 5 85 -17 3 -10 1 -22 -4 -25 -5 -3 -3 -12 5
-20 19 -19 32 -18 16 1 -7 9 -10 19 -6 22 4 4 18 -6 32 -22 l24 -30 -17 32
c-10 18 -23 33 -30 33 -22 0 -18 35 7 55 13 11 28 19 32 17 5 -1 8 5 8 13 0
13 12 19 32 16 4 0 5 6 2 14 -3 8 2 35 11 60 30 78 1 219 -56 271 -10 9 -19
24 -19 33 0 14 -2 14 -10 1 -8 -12 -11 -12 -27 2 -10 8 -30 18 -45 22 -16 3
-28 11 -28 16 0 6 -4 10 -10 10 -5 0 -6 -8 -3 -17 6 -15 4 -16 -8 -6 -12 10
-23 8 -53 -8 -21 -11 -46 -17 -54 -14 -9 3 -13 3 -9 -1 3 -4 -7 -22 -23 -40
-18 -21 -27 -40 -23 -50 5 -13 1 -15 -18 -9 -18 5 -21 4 -9 -4 29 -21 52 -10
116 50 61 59 65 61 105 56 23 -3 48 -12 56 -20 13 -13 10 -14 -23 -5 -30 8
-47 7 -74 -4 l-35 -15 69 1 c53 1 71 -3 79 -16 18 -27 -7 -86 -68 -161 -30
-38 -55 -74 -55 -80 1 -15 108 102 116 125 3 10 10 18 16 18 6 0 9 3 5 6 -3 3
-1 18 4 32 6 16 6 35 0 54 -6 15 -6 28 -2 28 13 0 61 -66 61 -84 0 -8 5 -18
11 -21 6 -4 8 -13 5 -21 -3 -8 0 -23 6 -33 17 -28 -7 -131 -30 -131 -32 0
-118 -47 -145 -79 -35 -42 -48 -93 -40 -158 3 -29 3 -53 1 -53 -8 0 -103 140
-126 186 -33 66 -62 181 -68 274 -3 63 -10 92 -25 112 -18 26 -18 30 -4 58 9
16 22 30 30 30 8 0 15 7 15 16 0 9 9 18 20 21 11 3 20 13 20 22 0 23 20 41 46
41 12 0 27 7 35 16 7 9 21 13 33 10 12 -3 28 -1 36 4 8 5 22 8 30 6 8 -3 30
-8 49 -11z m261 11 c0 -16 -14 -36 -26 -36 -14 0 -19 22 -7 33 7 8 33 10 33 3z
m485 -16 c21 -23 44 -28 25 -5 -16 19 -8 29 18 21 14 -5 18 -13 14 -31 -7 -37
-28 -51 -50 -33 -9 8 -32 21 -49 29 -18 8 -33 17 -33 20 0 26 51 25 75 -1z
m-1257 -49 c85 -43 164 -165 201 -311 46 -178 72 -241 139 -339 62 -90 66
-100 70 -162 4 -67 4 -67 -36 -107 -69 -69 -178 -79 -259 -25 -37 26 -143 135
-113 118 8 -5 3 4 -12 21 -14 16 -48 54 -75 84 -26 30 -60 68 -75 83 -16 16
-28 32 -28 37 0 4 -6 10 -13 13 -7 3 -26 24 -42 48 -17 24 -36 48 -42 52 -7 4
-13 14 -13 22 0 7 -6 20 -14 28 -26 25 -48 110 -47 182 0 143 55 225 180 272
47 17 127 10 179 -16z m1196 20 c3 -4 -20 -17 -52 -28 -98 -35 -174 -60 -247
-82 -39 -11 -80 -28 -90 -37 -11 -8 -14 -13 -7 -9 6 3 12 1 12 -5 0 -23 -59 8
-60 31 0 14 166 75 325 118 80 21 111 25 119 12z m-1479 -21 c7 -12 -12 -40
-26 -40 -5 0 -8 11 -7 25 2 25 21 34 33 15z m979 4 c25 -9 19 -34 -7 -34 -30
0 -40 10 -26 27 13 15 12 15 33 7z m549 -18 c37 -30 28 -56 -19 -56 -25 0 -32
4 -28 15 7 17 -7 15 -129 -15 -37 -9 -64 -13 -58 -7 8 8 188 85 201 86 3 0 18
-10 33 -23z m-1073 -134 c-1 -11 -6 -7 -17 13 -8 17 -21 37 -27 46 -6 8 1 2
17 -13 15 -16 27 -36 27 -46z m800 64 c0 -2 -20 -16 -45 -30 -58 -35 -57 -40
2 -14 27 12 70 27 98 34 59 16 201 18 210 4 4 -6 -19 -10 -61 -10 -52 0 -94
-9 -187 -41 -86 -29 -128 -38 -149 -33 -25 5 -28 8 -17 19 14 14 128 74 142
75 4 0 7 -2 7 -4z m-585 -39 c-16 -12 -47 -37 -67 -56 -24 -21 -38 -28 -38
-19 0 18 33 49 80 76 47 27 62 27 25 -1z m796 -5 c-7 -2 -22 -13 -32 -23 -10
-10 -32 -25 -48 -34 -29 -14 -31 -14 -31 2 0 11 15 25 38 35 32 15 13 15 -27
0 -9 -3 -12 0 -9 9 3 9 20 14 51 14 25 1 49 4 53 8 4 4 10 4 13 1 3 -4 0 -9
-8 -12z m-126 -20 c-11 -9 -87 -33 -101 -31 -5 0 9 9 31 20 40 19 87 26 70 11z
m3 -39 c-2 -12 -12 -18 -28 -18 -14 0 -27 -3 -30 -7 -3 -4 -27 -2 -53 4 -53
11 -55 23 -4 20 18 -1 46 2 62 7 46 14 57 13 53 -6z m57 -18 c-32 -27 -45 -31
-45 -15 0 10 48 39 65 39 6 0 -3 -11 -20 -24z m-55 -24 c0 -12 -48 -23 -63
-14 -8 5 -3 10 13 14 36 10 50 10 50 0z m0 -43 c0 -12 -3 -18 -6 -15 -4 3 -15
2 -25 -4 -16 -8 -19 -6 -19 10 0 17 12 25 43 30 4 0 7 -9 7 -21z m-450 -187
c0 -16 -63 -72 -98 -87 -19 -9 -39 -11 -48 -6 -21 12 30 58 92 82 59 23 54 22
54 11z"/>
<path d="M1091 2156 c-17 -31 -12 -44 15 -37 18 5 20 9 9 34 l-11 28 -13 -25z"/>
<path d="M2735 2355 c39 -7 84 -15 100 -19 17 -3 5 3 -25 14 -30 10 -75 19
-100 18 -41 0 -39 -1 25 -13z"/>
<path d="M2660 2320 c30 -6 84 -15 120 -20 36 -6 79 -13 95 -17 17 -3 27 -3
23 1 -12 14 -124 35 -208 40 -78 5 -80 4 -30 -4z"/>
<path d="M2678 2256 c100 -13 168 -25 237 -43 13 -4 17 -2 10 5 -16 16 -163
42 -265 47 l-95 4 113 -13z"/>
<path d="M2625 2209 c39 -6 121 -18 183 -28 61 -10 112 -14 112 -10 0 9 -184
37 -285 43 l-80 5 70 -10z"/>
<path d="M2542 2145 c3 -3 50 -11 105 -16 54 -5 138 -18 186 -28 49 -10 85
-15 80 -10 -21 20 -391 75 -371 54z"/>
<path d="M2561 2096 c3 -3 54 -12 114 -21 61 -9 136 -23 169 -31 65 -17 90
-12 29 6 -87 25 -326 60 -312 46z"/>
<path d="M2570 2030 c8 -5 30 -10 47 -10 18 0 86 -11 150 -25 139 -29 164 -31
71 -4 -64 18 -234 49 -268 49 -13 0 -13 -1 0 -10z"/>
<path d="M2574 1978 c-3 -4 14 -8 38 -8 36 0 151 -21 248 -45 18 -5 21 -4 10
3 -41 27 -285 68 -296 50z"/>
<path d="M2650 1906 c47 -7 109 -18 138 -25 85 -18 94 -11 12 10 -41 10 -111
21 -155 24 l-80 4 85 -13z"/>
<path d="M2646 1846 c44 -8 107 -21 138 -30 32 -10 60 -15 62 -13 10 9 -155
50 -215 53 l-66 3 81 -13z"/>
<path d="M2570 1689 c25 -5 89 -20 143 -32 53 -13 97 -20 97 -17 0 10 -162 49
-225 54 -59 5 -59 5 -15 -5z"/>
<path d="M2532 1644 c4 -3 39 -12 78 -20 40 -9 99 -24 131 -34 32 -10 57 -14
54 -10 -6 9 -117 43 -193 59 -59 12 -78 14 -70 5z"/>
<path d="M2535 1590 c3 -5 17 -10 29 -10 13 0 63 -11 111 -25 92 -27 130 -28
48 -2 -59 20 -167 47 -183 47 -6 0 -8 -4 -5 -10z"/>
<path d="M2540 1532 c0 -5 35 -17 78 -27 42 -10 84 -20 92 -23 10 -3 12 -2 5
5 -5 6 -41 18 -80 27 -38 10 -76 19 -82 21 -7 2 -13 1 -13 -3z"/>
<path d="M1395 2100 c-33 -4 -69 -11 -80 -15 -29 -11 -76 -56 -86 -83 -5 -12
-18 -26 -30 -30 -21 -8 -21 -8 4 -32 33 -32 103 -59 155 -59 55 -1 85 27 107
102 15 52 13 129 -4 126 -3 -1 -33 -5 -66 -9z m35 -19 c0 -5 9 -11 20 -14 11
-3 20 -14 20 -24 0 -29 -8 -33 -38 -17 -74 38 -182 -16 -182 -91 0 -9 -6 -15
-12 -12 -39 13 14 117 72 141 64 27 120 35 120 17z m-4 -96 c18 -14 17 -14
-13 -15 -23 0 -45 -11 -73 -36 -39 -35 -40 -36 -40 -12 0 59 79 99 126 63z
m14 -44 c-16 -31 -51 -51 -89 -51 l-34 0 24 26 c27 29 53 42 87 43 19 1 21 -2
12 -18z"/>
<path d="M1255 1510 c-10 -11 -15 -28 -12 -39 3 -13 -1 -21 -12 -24 -14 -3
-14 -5 2 -12 24 -10 62 17 75 55 6 17 7 28 2 25 -5 -3 -11 -1 -15 5 -9 15 -20
12 -40 -10z m39 -9 c3 -4 -1 -17 -9 -27 -16 -23 -40 -7 -29 19 7 18 29 23 38
8z"/>
<path d="M1675 1451 c-9 -16 15 -24 30 -11 9 8 29 10 52 6 27 -4 32 -3 18 4
-27 12 -75 12 -75 0 0 -5 -5 -10 -11 -10 -5 0 -7 5 -4 10 3 6 4 10 1 10 -3 0
-7 -4 -11 -9z"/>
<path d="M2100 1731 c0 -5 -9 -13 -20 -16 -11 -3 -20 -11 -20 -16 0 -14 17
-11 33 6 8 8 17 11 21 8 3 -4 6 -1 6 5 0 6 -4 14 -10 17 -5 3 -10 2 -10 -4z"/>
<path d="M2375 1460 c3 -5 12 -10 20 -10 8 0 17 -4 20 -10 3 -5 0 -7 -8 -4 -8
3 -18 1 -22 -5 -3 -7 2 -11 13 -11 19 0 37 -25 28 -39 -3 -4 4 -7 14 -7 16 0
17 2 4 20 -8 11 -14 28 -14 37 0 9 -11 21 -25 27 -32 15 -38 15 -30 2z"/>
<path d="M870 968 c0 -4 5 -18 11 -32 28 -60 -25 -114 -78 -82 l-28 17 25 -21
c15 -13 33 -20 47 -17 13 2 23 0 23 -4 0 -23 19 -5 24 24 11 51 8 89 -9 106
-8 8 -15 12 -15 9z"/>
<path d="M1086 743 c-4 -9 -1 -21 5 -27 9 -8 10 -6 5 9 -6 16 -5 18 5 8 7 -7
17 -13 21 -13 14 0 8 15 -11 27 -16 10 -20 9 -25 -4z"/>
<path d="M1037 657 c-3 -9 -2 -17 3 -17 6 0 10 -6 10 -14 0 -7 10 -16 21 -19
l21 -6 -20 22 c-11 12 -21 29 -24 36 -3 12 -6 12 -11 -2z"/>
<path d="M329 1289 c-56 -40 -108 -88 -121 -114 -6 -11 18 7 53 41 35 34 79
68 97 78 17 9 32 19 32 21 0 12 -20 3 -61 -26z"/>
<path d="M392 1256 c-61 -37 -182 -142 -182 -158 0 -6 28 16 63 49 34 32 90
76 125 98 34 21 62 39 62 41 0 9 -18 1 -68 -30z"/>
<path d="M417 1192 c-76 -58 -179 -151 -193 -174 -5 -7 28 19 71 57 44 39 108
92 143 118 56 43 70 57 58 57 -2 0 -38 -26 -79 -58z"/>
<path d="M454 1122 c-95 -72 -214 -177 -214 -188 0 -3 44 33 98 79 53 46 128
107 166 135 38 29 65 52 60 52 -5 0 -55 -35 -110 -78z"/>
<path d="M534 1088 c-118 -83 -293 -239 -268 -238 5 1 32 23 59 51 28 28 101
89 163 135 100 76 120 94 109 94 -2 0 -30 -19 -63 -42z"/>
<path d="M513 961 c-111 -92 -215 -191 -198 -191 6 0 37 28 70 61 33 33 102
94 153 136 85 70 99 83 88 83 -3 0 -53 -40 -113 -89z"/>
<path d="M598 927 c-86 -66 -228 -189 -228 -200 0 -5 28 17 63 48 34 31 101
87 150 123 48 36 87 67 87 69 0 10 -21 -2 -72 -40z"/>
<path d="M599 840 c-43 -33 -101 -83 -130 -111 -59 -56 -33 -39 89 61 43 36
92 75 108 87 16 12 25 22 19 22 -5 0 -44 -27 -86 -59z"/>
<path d="M629 777 c-78 -62 -174 -147 -165 -147 3 0 41 29 84 65 42 36 96 78
119 93 39 25 54 43 36 42 -5 -1 -38 -24 -74 -53z"/>
<path d="M645 710 c-76 -55 -184 -147 -139 -119 18 12 116 85 214 159 14 10
21 19 15 19 -5 0 -46 -27 -90 -59z"/>
<path d="M705 672 c-83 -60 -186 -144 -181 -149 2 -3 29 15 58 39 30 25 84 66
121 92 37 26 67 50 67 52 0 10 -18 0 -65 -34z"/>
<path d="M682 590 c-50 -38 -94 -75 -98 -81 -11 -18 12 -3 91 61 39 31 81 64
95 73 13 9 19 17 13 17 -6 0 -52 -31 -101 -70z"/>
<path d="M732 523 c-61 -48 -109 -89 -107 -91 4 -5 197 142 215 163 23 28 3
15 -108 -72z"/>
<path d="M763 473 c-62 -42 -111 -78 -109 -81 5 -5 212 134 221 148 10 16 7
14 -112 -67z"/>
<path d="M815 450 c-44 -28 -86 -57 -95 -66 -17 -18 -16 -18 50 23 110 69 144
93 135 93 -6 0 -47 -23 -90 -50z"/>
<path d="M2350 1690 c0 -32 -4 -37 -51 -60 -30 -14 -69 -44 -93 -72 -30 -35
-48 -48 -68 -48 -29 0 -48 23 -48 59 0 11 -5 23 -11 26 -7 5 -9 -6 -7 -31 2
-26 11 -43 30 -57 36 -27 73 -16 123 38 22 23 60 53 84 65 24 12 46 30 48 41
4 15 9 16 24 8 13 -6 19 -6 19 1 0 5 -4 10 -10 10 -5 0 -16 12 -24 28 l-15 27
-1 -35z"/>
<path d="M434 1425 c-18 -14 -17 -14 15 -15 24 0 44 -9 64 -27 25 -24 28 -25
18 -6 -11 21 -57 63 -70 63 -4 0 -16 -7 -27 -15z"/>
<path d="M1687 1088 c-32 -44 -56 -83 -53 -85 6 -6 83 92 102 130 29 55 8 36
-49 -45z"/>
<path d="M1349 1107 c16 -21 83 -57 103 -57 7 1 -3 9 -22 18 -19 10 -48 27
-65 37 -27 18 -29 18 -16 2z"/>
<path d="M1702 1043 c-29 -36 -52 -62 -52 -58 0 5 -11 -2 -25 -15 -14 -13 -25
-32 -25 -42 0 -12 -4 -16 -12 -12 -15 10 -3 -125 13 -140 9 -8 10 -5 6 14 -23
99 -24 98 59 190 74 82 100 118 92 125 -2 2 -27 -26 -56 -62z"/>
<path d="M2219 1095 c-14 -8 -59 -23 -99 -34 -68 -19 -96 -31 -73 -31 5 0 32
7 58 15 27 8 50 13 52 11 9 -8 -105 -59 -169 -75 -68 -18 -71 -19 -38 -24 52
-8 83 -4 113 16 36 23 76 21 111 -6 26 -21 28 -27 22 -62 -9 -45 -63 -105 -95
-105 -12 0 -33 7 -46 16 -18 12 -29 13 -38 6 -8 -7 -18 -7 -27 -2 -31 20 -75
11 -105 -20 -25 -26 -27 -32 -13 -43 28 -23 48 -60 42 -82 -9 -35 22 -58 67
-51 32 5 40 3 49 -14 6 -11 8 -31 4 -45 -7 -30 -3 -30 62 -8 101 34 167 95
218 203 39 83 43 201 9 265 -17 32 -65 86 -76 85 -1 -1 -14 -7 -28 -15z m51
-74 c13 -25 13 -96 0 -140 -13 -45 -6 -51 14 -12 18 34 21 117 6 157 -18 45
-2 40 20 -7 40 -89 19 -211 -56 -312 -39 -53 -76 -79 -148 -103 -41 -14 -50
-14 -57 -3 -13 22 -11 29 11 29 22 0 103 30 97 36 -2 3 -29 -2 -59 -10 -36 -9
-74 -12 -109 -8 -52 7 -53 8 -61 46 -5 22 -16 48 -25 59 -13 14 -15 22 -6 35
13 21 122 24 171 5 27 -11 37 -11 61 2 16 8 39 27 50 41 27 34 27 10 1 -34
-27 -45 -65 -58 -108 -38 -44 21 -75 20 -103 -4 -13 -10 -19 -19 -12 -20 6 0
15 5 18 10 10 16 49 12 95 -9 48 -22 63 -19 103 18 54 50 78 220 37 261 -11
11 -26 20 -32 20 -8 1 -5 7 6 15 16 12 22 12 47 -1 16 -8 33 -23 39 -33z m-70
-16 c17 -31 6 -44 -18 -22 -10 10 -26 17 -35 17 -9 0 -17 4 -17 8 0 31 53 29
70 -3z"/>
<path d="M1430 971 c0 -7 14 -15 63 -39 4 -2 7 0 7 5 0 5 -16 17 -35 26 -19 9
-35 13 -35 8z"/>
<path d="M1306 909 c5 -9 79 -32 142 -44 57 -12 34 10 -31 28 -74 21 -119 28
-111 16z"/>
<path d="M1485 890 c7 -11 75 -34 81 -27 3 3 -16 12 -41 20 -25 9 -43 12 -40
7z"/>
</g>
</svg>
